<svg xmlns="http://www.w3.org/2000/svg" viewBox="0 0 704 250"
     class="bnd bnd-wide" role="img" focusable="false"
     aria-labelledby="bnd-wide-title">
  <title id="bnd-wide-title">A diagram of one machine: your library, istor, and ollama or llama.cpp run inside a boundary labelled your machine, and the only wire leaving it, web research, is crossed out and marked off until you turn it on. No account, no key.</title>
  <!-- Generated by Source/tools/make-boundary.py -- do not hand-edit.
       Every label in it is a phrase the act already uses in words. -->
  <rect class="bnd-line" x="6.0" y="40.0" width="591.5" height="150.0" rx="18.0"/>
  <text class="bnd-label" x="24.0" y="62.0">your machine</text>
  <rect class="bnd-box" x="20.0" y="90.0" width="164.8" height="62.0" rx="10.0"/>
  <text class="bnd-name" x="102.4" y="118.0" text-anchor="middle" font-size="15.0">your library</text>
  <text class="bnd-sub" x="102.4" y="136.0" text-anchor="middle" font-size="11.5">the documents you gave it</text>
  <rect class="bnd-box" x="202.8" y="90.0" width="176.9" height="62.0" rx="10.0"/>
  <text class="bnd-name" x="291.2" y="118.0" text-anchor="middle" font-size="15.0">istor</text>
  <text class="bnd-sub" x="291.2" y="136.0" text-anchor="middle" font-size="11.5">search, reading and answers</text>
  <rect class="bnd-box" x="397.7" y="90.0" width="157.8" height="62.0" rx="10.0"/>
  <text class="bnd-name" x="476.6" y="118.0" text-anchor="middle" font-size="15.0">ollama or llama.cpp</text>
  <text class="bnd-sub" x="476.6" y="136.0" text-anchor="middle" font-size="11.5">the model you choose</text>
  <path class="bnd-wire" d="M190.8 121.0 L196.8 121.0 M191.7 124.1 L196.8 121.0 L191.7 117.9"/>
  <path class="bnd-wire" d="M385.7 121.0 L391.7 121.0 M386.6 124.1 L391.7 121.0 L386.6 117.9"/>
  <path class="bnd-wire" d="M291.2 90.0 L291.2 18.0 L569.5 18.0 M564.4 21.1 L569.5 18.0 L564.4 14.9"/>
  <path class="bnd-cross" d="M284.2 33.0 L298.2 47.0 M298.2 33.0 L284.2 47.0"/>
  <text class="bnd-outside" x="579.5" y="23.0" font-size="15.0">web research</text>
  <text class="bnd-sub" x="579.5" y="42.0" font-size="11.5">off until you turn it on</text>
  <text class="bnd-claim" x="6.0" y="234.0" font-size="11.5">no account, no key</text>
</svg>
