<svg xmlns="http://www.w3.org/2000/svg" viewBox="0 0 668 250"
     class="bnd bnd-wide" role="img" focusable="false"
     aria-labelledby="bnd-wide-title">
  <title id="bnd-wide-title">A diagram of one machine: your library, istor, and ollama or llama.cpp run inside a boundary labelled your machine, and the only wire leaving it, web research, is crossed out and marked off until you turn it on. No account, no key.</title>
  <!-- Generated by Source/tools/make-boundary.py -- do not hand-edit.
       Every label in it is a phrase the act already uses in words. -->
  <rect class="bnd-line" x="6.0" y="40.0" width="556.2" height="150.0" rx="18.0"/>
  <text class="bnd-label" x="24.0" y="62.0">your machine</text>
  <rect class="bnd-box" x="20.0" y="90.0" width="147.9" height="62.0" rx="10.0"/>
  <text class="bnd-name" x="94.0" y="118.0" text-anchor="middle" font-size="15.0">your library</text>
  <text class="bnd-sub" x="94.0" y="136.0" text-anchor="middle" font-size="11.5">a document you gave it</text>
  <rect class="bnd-box" x="185.9" y="90.0" width="154.4" height="62.0" rx="10.0"/>
  <text class="bnd-name" x="263.1" y="118.0" text-anchor="middle" font-size="15.0">istor</text>
  <text class="bnd-sub" x="263.1" y="136.0" text-anchor="middle" font-size="11.5">the answer in the middle</text>
  <rect class="bnd-box" x="358.3" y="90.0" width="161.9" height="62.0" rx="10.0"/>
  <text class="bnd-name" x="439.2" y="118.0" text-anchor="middle" font-size="15.0">Ollama or llama.cpp</text>
  <text class="bnd-sub" x="439.2" y="136.0" text-anchor="middle" font-size="11.5">the model you choose</text>
  <path class="bnd-wire" d="M173.9 121.0 L179.9 121.0 M174.8 124.1 L179.9 121.0 L174.8 117.9"/>
  <path class="bnd-wire" d="M346.3 121.0 L352.3 121.0 M347.2 124.1 L352.3 121.0 L347.2 117.9"/>
  <path class="bnd-wire" d="M263.1 90.0 L263.1 18.0 L534.2 18.0 M529.1 21.1 L534.2 18.0 L529.1 14.9"/>
  <path class="bnd-cross" d="M256.1 33.0 L270.1 47.0 M270.1 33.0 L256.1 47.0"/>
  <text class="bnd-outside" x="544.2" y="23.0" font-size="15.0">web research</text>
  <text class="bnd-sub" x="544.2" y="42.0" font-size="11.5">off until you turn it on</text>
  <text class="bnd-claim" x="6.0" y="234.0" font-size="11.5">no account and no key</text>
</svg>
