<svg xmlns="http://www.w3.org/2000/svg" viewBox="0 0 340 430"
     class="mtc-plate mtc-tall" role="img" focusable="false"
     aria-labelledby="mtc-tall-title">
  <title id="mtc-tall-title">The Metonic coincidence: 235 lunar months in 19 tropical years, about two hours apart.</title>
  <g class="mtc-moons">
    <circle class="mtc-months-ring" cx="170.0" cy="138.0" r="96.0" stroke-dasharray="0.02 2.546748" transform="rotate(-90 170.0 138.0)"/>
  </g>
  <g class="mtc-years">
    <line class="mtc-year" x1="170.00" y1="83.00" x2="170.00" y2="69.00"/>
    <line class="mtc-year" x1="187.86" y1="85.98" x2="192.40" y2="72.74"/>
    <line class="mtc-year" x1="203.78" y1="94.60" x2="212.38" y2="83.55"/>
    <line class="mtc-year" x1="216.04" y1="107.92" x2="227.76" y2="100.26"/>
    <line class="mtc-year" x1="223.32" y1="124.50" x2="236.89" y2="121.06"/>
    <line class="mtc-year" x1="224.81" y1="142.54" x2="238.76" y2="143.70"/>
    <line class="mtc-year" x1="220.37" y1="160.09" x2="233.19" y2="165.72"/>
    <line class="mtc-year" x1="210.46" y1="175.25" x2="220.76" y2="184.73"/>
    <line class="mtc-year" x1="196.18" y1="186.37" x2="202.84" y2="198.68"/>
    <line class="mtc-year" x1="179.05" y1="192.25" x2="181.36" y2="206.06"/>
    <line class="mtc-year" x1="160.95" y1="192.25" x2="158.64" y2="206.06"/>
    <line class="mtc-year" x1="143.82" y1="186.37" x2="137.16" y2="198.68"/>
    <line class="mtc-year" x1="129.54" y1="175.25" x2="119.24" y2="184.73"/>
    <line class="mtc-year" x1="119.63" y1="160.09" x2="106.81" y2="165.72"/>
    <line class="mtc-year" x1="115.19" y1="142.54" x2="101.24" y2="143.70"/>
    <line class="mtc-year" x1="116.68" y1="124.50" x2="103.11" y2="121.06"/>
    <line class="mtc-year" x1="123.96" y1="107.92" x2="112.24" y2="100.26"/>
    <line class="mtc-year" x1="136.22" y1="94.60" x2="127.62" y2="83.55"/>
    <line class="mtc-year" x1="152.14" y1="85.98" x2="147.60" y2="72.74"/>
  </g>
  <g class="mtc-anchor">
    <line class="mtc-anchor-line" x1="170.00" y1="85.00" x2="170.00" y2="36.00"/>
    <circle class="mtc-anchor-dot" cx="170.00" cy="42.00" r="1.6"/>
  </g>
  <g class="mtc-hubtext">
    <circle class="mtc-hub" cx="170.0" cy="138.0" r="51.0"/>
    <text class="mtc-hub-lead" x="170.0" y="128.3" font-size="15.2" font-family="Inter, sans-serif" font-weight="600" text-anchor="middle">differ by only</text>
    <text class="mtc-claim" x="170.0" y="146.3" font-size="15.2" font-family="Inter, sans-serif" font-weight="600" text-anchor="middle">about two hours</text>
  </g>
  <g class="mtc-labels">
    <text class="mtc-years-label" x="170.0" y="268.0" font-size="16.5" font-family="Inter, sans-serif" font-weight="600" text-anchor="middle">19 tropical years</text>
    <text class="mtc-months-label" x="170.0" y="288.0" font-size="16.5" font-family="Inter, sans-serif" font-weight="600" text-anchor="middle">235 synodic lunar months</text>
  </g>
</svg>
