<svg xmlns="http://www.w3.org/2000/svg" viewBox="0 0 380 366" width="380" height="366" role="img" aria-label="The same sentence cut three ways: 35 pieces by letter, 9 by token, 6 by word. A word-level scheme has no entry for Ægir, which costs two tokens." focusable="false" data-variant="tall"><text x="22" y="86.48" font-family="JetBrains Mono, ui-monospace, Consolas, monospace" font-size="16" fill="var(--ink)">the Ægir dataset costs 4,096 tokens</text><line x1="31.6" y1="62" x2="31.6" y2="67.04" stroke="var(--mist)" stroke-width="1"/><line x1="31.6" y1="92.96" x2="31.6" y2="98" stroke="var(--mist)" stroke-width="1"/><line x1="41.2" y1="62" x2="41.2" y2="67.04" stroke="var(--mist)" stroke-width="1"/><line x1="41.2" y1="92.96" x2="41.2" y2="98" stroke="var(--mist)" stroke-width="1"/><line x1="50.8" y1="62" x2="50.8" y2="67.04" stroke="var(--mist)" stroke-width="1"/><line x1="50.8" y1="92.96" x2="50.8" y2="98" stroke="var(--mist)" stroke-width="1"/><line x1="60.4" y1="62" x2="60.4" y2="67.04" stroke="var(--mist)" stroke-width="1"/><line x1="60.4" y1="92.96" x2="60.4" y2="98" stroke="var(--mist)" stroke-width="1"/><line x1="70" y1="62" x2="70" y2="67.04" stroke="var(--mist)" stroke-width="1"/><line x1="70" y1="92.96" x2="70" y2="98" stroke="var(--mist)" stroke-width="1"/><line x1="79.6" y1="62" x2="79.6" y2="67.04" stroke="var(--mist)" stroke-width="1"/><line x1="79.6" y1="92.96" x2="79.6" y2="98" stroke="var(--mist)" stroke-width="1"/><line x1="89.2" y1="62" x2="89.2" y2="67.04" stroke="var(--mist)" stroke-width="1"/><line x1="89.2" y1="92.96" x2="89.2" y2="98" stroke="var(--mist)" stroke-width="1"/><line x1="98.8" y1="62" x2="98.8" y2="67.04" stroke="var(--mist)" stroke-width="1"/><line x1="98.8" y1="92.96" x2="98.8" y2="98" stroke="var(--mist)" stroke-width="1"/><line x1="108.4" y1="62" x2="108.4" y2="67.04" stroke="var(--mist)" stroke-width="1"/><line x1="108.4" y1="92.96" x2="108.4" y2="98" stroke="var(--mist)" stroke-width="1"/><line x1="118" y1="62" x2="118" y2="67.04" stroke="var(--mist)" stroke-width="1"/><line x1="118" y1="92.96" x2="118" y2="98" stroke="var(--mist)" stroke-width="1"/><line x1="127.6" y1="62" x2="127.6" y2="67.04" stroke="var(--mist)" stroke-width="1"/><line x1="127.6" y1="92.96" x2="127.6" y2="98" stroke="var(--mist)" stroke-width="1"/><line x1="137.2" y1="62" x2="137.2" y2="67.04" stroke="var(--mist)" stroke-width="1"/><line x1="137.2" y1="92.96" x2="137.2" y2="98" stroke="var(--mist)" stroke-width="1"/><line x1="146.8" y1="62" x2="146.8" y2="67.04" stroke="var(--mist)" stroke-width="1"/><line x1="146.8" y1="92.96" x2="146.8" y2="98" stroke="var(--mist)" stroke-width="1"/><line x1="156.4" y1="62" x2="156.4" y2="67.04" stroke="var(--mist)" stroke-width="1"/><line x1="156.4" y1="92.96" x2="156.4" y2="98" stroke="var(--mist)" stroke-width="1"/><line x1="166" y1="62" x2="166" y2="67.04" stroke="var(--mist)" stroke-width="1"/><line x1="166" y1="92.96" x2="166" y2="98" stroke="var(--mist)" stroke-width="1"/><line x1="175.6" y1="62" x2="175.6" y2="67.04" stroke="var(--mist)" stroke-width="1"/><line x1="175.6" y1="92.96" x2="175.6" y2="98" stroke="var(--mist)" stroke-width="1"/><line x1="185.2" y1="62" x2="185.2" y2="67.04" stroke="var(--mist)" stroke-width="1"/><line x1="185.2" y1="92.96" x2="185.2" y2="98" stroke="var(--mist)" stroke-width="1"/><line x1="194.8" y1="62" x2="194.8" y2="67.04" stroke="var(--mist)" stroke-width="1"/><line x1="194.8" y1="92.96" x2="194.8" y2="98" stroke="var(--mist)" stroke-width="1"/><line x1="204.4" y1="62" x2="204.4" y2="67.04" stroke="var(--mist)" stroke-width="1"/><line x1="204.4" y1="92.96" x2="204.4" y2="98" stroke="var(--mist)" stroke-width="1"/><line x1="214" y1="62" x2="214" y2="67.04" stroke="var(--mist)" stroke-width="1"/><line x1="214" y1="92.96" x2="214" y2="98" stroke="var(--mist)" stroke-width="1"/><line x1="223.6" y1="62" x2="223.6" y2="67.04" stroke="var(--mist)" stroke-width="1"/><line x1="223.6" y1="92.96" x2="223.6" y2="98" stroke="var(--mist)" stroke-width="1"/><line x1="233.2" y1="62" x2="233.2" y2="67.04" stroke="var(--mist)" stroke-width="1"/><line x1="233.2" y1="92.96" x2="233.2" y2="98" stroke="var(--mist)" stroke-width="1"/><line x1="242.8" y1="62" x2="242.8" y2="67.04" stroke="var(--mist)" stroke-width="1"/><line x1="242.8" y1="92.96" x2="242.8" y2="98" stroke="var(--mist)" stroke-width="1"/><line x1="252.4" y1="62" x2="252.4" y2="67.04" stroke="var(--mist)" stroke-width="1"/><line x1="252.4" y1="92.96" x2="252.4" y2="98" stroke="var(--mist)" stroke-width="1"/><line x1="262" y1="62" x2="262" y2="67.04" stroke="var(--mist)" stroke-width="1"/><line x1="262" y1="92.96" x2="262" y2="98" stroke="var(--mist)" stroke-width="1"/><line x1="271.6" y1="62" x2="271.6" y2="67.04" stroke="var(--mist)" stroke-width="1"/><line x1="271.6" y1="92.96" x2="271.6" y2="98" stroke="var(--mist)" stroke-width="1"/><line x1="281.2" y1="62" x2="281.2" y2="67.04" stroke="var(--mist)" stroke-width="1"/><line x1="281.2" y1="92.96" x2="281.2" y2="98" stroke="var(--mist)" stroke-width="1"/><line x1="290.8" y1="62" x2="290.8" y2="67.04" stroke="var(--mist)" stroke-width="1"/><line x1="290.8" y1="92.96" x2="290.8" y2="98" stroke="var(--mist)" stroke-width="1"/><line x1="300.4" y1="62" x2="300.4" y2="67.04" stroke="var(--mist)" stroke-width="1"/><line x1="300.4" y1="92.96" x2="300.4" y2="98" stroke="var(--mist)" stroke-width="1"/><line x1="310" y1="62" x2="310" y2="67.04" stroke="var(--mist)" stroke-width="1"/><line x1="310" y1="92.96" x2="310" y2="98" stroke="var(--mist)" stroke-width="1"/><line x1="319.6" y1="62" x2="319.6" y2="67.04" stroke="var(--mist)" stroke-width="1"/><line x1="319.6" y1="92.96" x2="319.6" y2="98" stroke="var(--mist)" stroke-width="1"/><line x1="329.2" y1="62" x2="329.2" y2="67.04" stroke="var(--mist)" stroke-width="1"/><line x1="329.2" y1="92.96" x2="329.2" y2="98" stroke="var(--mist)" stroke-width="1"/><line x1="338.8" y1="62" x2="338.8" y2="67.04" stroke="var(--mist)" stroke-width="1"/><line x1="338.8" y1="92.96" x2="338.8" y2="98" stroke="var(--mist)" stroke-width="1"/><line x1="348.4" y1="62" x2="348.4" y2="67.04" stroke="var(--mist)" stroke-width="1"/><line x1="348.4" y1="92.96" x2="348.4" y2="98" stroke="var(--mist)" stroke-width="1"/><path d="M60.4 190 V195 H98.8 V190 M79.6 195 V199" fill="none" stroke="var(--ink)" stroke-width="1.5" stroke-linecap="round"/><rect x="22" y="154" width="336" height="36" fill="var(--subtle)"/><text x="22" y="178.48" font-family="JetBrains Mono, ui-monospace, Consolas, monospace" font-size="16" fill="var(--ink)">the Ægir dataset costs 4,096 tokens</text><line x1="50.8" y1="154" x2="50.8" y2="163.36" stroke="var(--mist)" stroke-width="1"/><line x1="50.8" y1="180.64" x2="50.8" y2="190" stroke="var(--mist)" stroke-width="1"/><line x1="70" y1="154" x2="70" y2="163.36" stroke="var(--mist)" stroke-width="1"/><line x1="70" y1="180.64" x2="70" y2="190" stroke="var(--mist)" stroke-width="1"/><line x1="98.8" y1="154" x2="98.8" y2="163.36" stroke="var(--mist)" stroke-width="1"/><line x1="98.8" y1="180.64" x2="98.8" y2="190" stroke="var(--mist)" stroke-width="1"/><line x1="175.6" y1="154" x2="175.6" y2="163.36" stroke="var(--mist)" stroke-width="1"/><line x1="175.6" y1="180.64" x2="175.6" y2="190" stroke="var(--mist)" stroke-width="1"/><line x1="233.2" y1="154" x2="233.2" y2="163.36" stroke="var(--mist)" stroke-width="1"/><line x1="233.2" y1="180.64" x2="233.2" y2="190" stroke="var(--mist)" stroke-width="1"/><line x1="252.4" y1="154" x2="252.4" y2="163.36" stroke="var(--mist)" stroke-width="1"/><line x1="252.4" y1="180.64" x2="252.4" y2="190" stroke="var(--mist)" stroke-width="1"/><line x1="262" y1="154" x2="262" y2="163.36" stroke="var(--mist)" stroke-width="1"/><line x1="262" y1="180.64" x2="262" y2="190" stroke="var(--mist)" stroke-width="1"/><line x1="290.8" y1="154" x2="290.8" y2="163.36" stroke="var(--mist)" stroke-width="1"/><line x1="290.8" y1="180.64" x2="290.8" y2="190" stroke="var(--mist)" stroke-width="1"/><text x="22" y="270.48" font-family="JetBrains Mono, ui-monospace, Consolas, monospace" font-size="16" fill="var(--ink)">the Ægir dataset costs 4,096 tokens</text><line x1="50.8" y1="246" x2="50.8" y2="252.84" stroke="var(--mist)" stroke-width="1"/><line x1="50.8" y1="275.16" x2="50.8" y2="282" stroke="var(--mist)" stroke-width="1"/><line x1="98.8" y1="246" x2="98.8" y2="252.84" stroke="var(--mist)" stroke-width="1"/><line x1="98.8" y1="275.16" x2="98.8" y2="282" stroke="var(--mist)" stroke-width="1"/><line x1="175.6" y1="246" x2="175.6" y2="252.84" stroke="var(--mist)" stroke-width="1"/><line x1="175.6" y1="275.16" x2="175.6" y2="282" stroke="var(--mist)" stroke-width="1"/><line x1="233.2" y1="246" x2="233.2" y2="252.84" stroke="var(--mist)" stroke-width="1"/><line x1="233.2" y1="275.16" x2="233.2" y2="282" stroke="var(--mist)" stroke-width="1"/><line x1="290.8" y1="246" x2="290.8" y2="252.84" stroke="var(--mist)" stroke-width="1"/><line x1="290.8" y1="275.16" x2="290.8" y2="282" stroke="var(--mist)" stroke-width="1"/><rect x="60.4" y="246" width="38.4" height="36" fill="none" stroke="var(--witness)" stroke-width="1.5" stroke-dasharray="5 4"/><text x="22" y="26" font-family="Inter, system-ui, sans-serif" font-size="15" fill="var(--mist)">one sentence, three cuts, in pieces</text><text x="22" y="54" font-family="Inter, system-ui, sans-serif" font-size="15" fill="var(--mist)">by letter</text><text x="357" y="54" font-family="JetBrains Mono, ui-monospace, Consolas, monospace" font-size="16" fill="var(--mist)" text-anchor="end">35</text><text x="22" y="146" font-family="Inter, system-ui, sans-serif" font-size="15" fill="var(--ink)" font-weight="600">by token</text><text x="99.6" y="146" font-family="Inter, system-ui, sans-serif" font-size="15" fill="var(--ink)" font-weight="600">the pieces a model reads</text><text x="357" y="146" font-family="JetBrains Mono, ui-monospace, Consolas, monospace" font-size="16" fill="var(--ink)" font-weight="600" text-anchor="end">9</text><text x="22" y="212" font-family="Inter, system-ui, sans-serif" font-size="15" fill="var(--ink)">a name in two pieces, nothing unknown</text><text x="22" y="238" font-family="Inter, system-ui, sans-serif" font-size="15" fill="var(--mist)">by word</text><text x="357" y="238" font-family="JetBrains Mono, ui-monospace, Consolas, monospace" font-size="16" fill="var(--mist)" text-anchor="end">6</text><text x="79.6" y="305" font-family="Inter, system-ui, sans-serif" font-size="15" fill="var(--witness)" text-anchor="middle">no entry</text><text x="22" y="328" font-family="Inter, system-ui, sans-serif" font-size="15" fill="var(--mist)">Rule of thumb: 1,000 words of English</text><text x="22" y="346" font-family="Inter, system-ui, sans-serif" font-size="15" fill="var(--mist)">cost about 1,300 tokens.</text></svg>